# xmcd
#
# Track frame offsets:
#	150
#	27182
#	54393
#	76129
#	106721
#	132750
#	165574
#	202276
#	238748
#
# Disc length: 3549 seconds
#
# Revision: 1
# Processed by: cddbd v1.5.2PL0 Copyright (c) Steve Scherf et al.
# Submitted via: FairStars CD Ripper 2.00
#
DISCID=6c0ddb09
DTITLE=Sir Oliver Mally and Peter Schmeider - Folk Blues Adventures
DYEAR=2018
DGENRE=Blues
TTITLE0=21st Century Blues
TTITLE1=I Can't Wait To See My Baby
TTITLE2=Brave Enough
TTITLE3=No One Can Forgive Me But My Baby
TTITLE4=Last Summer Pissed Me Off
TTITLE5=Drivin' Blues
TTITLE6=Blind Willie Mctell
TTITLE7=Turn The Ship Around
TTITLE8=Learning To Fly
EXTD=
EXTT0=
EXTT1=
EXTT2=
EXTT3=
EXTT4=
EXTT5=
EXTT6=
EXTT7=
EXTT8=
PLAYORDER=
